<?xml version="1.0" encoding="utf-8"?>
<!-- Generator: Adobe Illustrator 19.2.1, SVG Export Plug-In . SVG Version: 6.00 Build 0)  -->
<svg version="1.1" id="Layer_3" xmlns="http://www.w3.org/2000/svg" xmlns:xlink="http://www.w3.org/1999/xlink" x="0px" y="0px"
	 viewBox="0 0 500 500" style="enable-background:new 0 0 500 500;" xml:space="preserve">
<style type="text/css">
	.st0{fill:#FFFFFF;}
	.st1{fill:#050505;}
</style>
<line class="st0" x1="332.7" y1="84.8" x2="413.4" y2="167.4"/>
<path class="st1" d="M277.2,363.4"/>
<path class="st1" d="M140.9,76.4"/>
<path class="st1" d="M359.1,76.4"/>
<path class="st0" d="M127.2,372.8l108.9,108.9c7.8,7.8,20.4,7.8,28.2,0l217.3-217.3c7.8-7.8,7.8-20.4,0-28.2L425,179.4
	c-3.8-3.8-9.3-5.4-14.5-4.2l-91.7,20.4c-3.4,0.7-6.5,2.4-8.9,4.8l-96.6,94c-1.7,1.6-0.1,4.4,2.1,3.9l177.9-43.5
	c2.3-0.6,3.9,2.3,2.2,3.9L266.5,386.9c-7.8,7.8-20.4,7.7-28.2,0c0,0-62.6-62.6-62.6-62.6l-62.6-62.6c-7.8-7.8-7.8-20.4,0-28.2
	l128.1-128.9c1.7-1.7,4.5-0.1,3.9,2.2l-43.5,177.9c-0.6,2.3,2.2,3.8,3.9,2.1l94-96.6c2.4-2.5,4.1-5.6,4.8-8.9l20.4-91.7
	c1.2-5.3-0.4-10.7-4.2-14.5l-56.7-56.7c-7.8-7.8-20.4-7.8-28.2,0L18.3,235.6c-7.8,7.8-7.8,20.4,0,28.2
	C18.3,263.8,127.2,372.8,127.2,372.8z"/>
</svg>
