<?xml version="1.0" encoding="utf-8"?>
<!-- Generator: Adobe Illustrator 19.2.1, SVG Export Plug-In . SVG Version: 6.00 Build 0)  -->
<svg version="1.1" xmlns="http://www.w3.org/2000/svg" xmlns:xlink="http://www.w3.org/1999/xlink" x="0px" y="0px"
	 viewBox="0 0 200 193" style="enable-background:new 0 0 200 193;" xml:space="preserve">
<style type="text/css">
	.st0{fill:#F2F2F2;}
	.st1{fill:#E44F26;}
	.st2{fill:#F1662A;}
	.st3{fill:#EBEBEB;}
	.st4{fill:#FFFFFF;}
	.st5{fill:#2363AF;}
	.st6{fill:#3D9CD6;}
	.st7{fill:url(#SVGID_1_);}
	.st8{fill:url(#SVGID_2_);}
	.st9{fill:url(#SVGID_3_);}
	.st10{opacity:5.000000e-02;}
	.st11{fill:#010101;}
	.st12{fill:url(#SVGID_4_);}
	.st13{opacity:5.000000e-02;fill:#010101;enable-background:new    ;}
	.st14{fill:#CF659B;}
	.st15{fill:#D24B48;}
	.st16{fill:#F05247;}
	.st17{fill:#DD1E34;}
	.st18{fill:#C32033;}
</style>
<g id="Layer_3">
	<g>
		<g>
			<path class="st0" d="M58.2,137.9c0.1,0.1,0.2,0.1,0.2,0.2c1,0.9,2.6,1,3.5,0c0.9-1,1-2.6,0-3.5c-0.1-0.1-0.2-0.1-0.2-0.2
				c-1-0.9-2.6-1-3.5,0C57.3,135.3,57.2,136.9,58.2,137.9L58.2,137.9z"/>
		</g>
	</g>
	<g>
		<g>
			<path class="st0" d="M57.8,135.2c-0.2,0.2-0.1,0.1,0.3-0.1c-0.1,0.1-1.3,0.6-0.8,0.9c0,0,0,0,0,0c0.9-0.3,1.9-0.6,2.8-0.9
				c-0.3-0.2-0.3-0.6-0.3-1c0-0.6-2.9-0.1-2.9,0.8c0,0.3,0,0.5,0.1,0.8c0.1,0.3,0.2,0.3,0.4,0.5c0.4,0.3,1.2,0.1,1.7-0.1
				c0.2-0.1,1.3-0.4,1.1-0.8c-0.1-0.1-0.1-0.2-0.2-0.3c-0.3,0.3-0.6,0.6-0.8,0.9c0.3-0.1,0.6-0.3,0.9-0.5c0.4-0.3,0.4-0.7-0.2-0.7
				C59.2,134.6,58.3,134.8,57.8,135.2L57.8,135.2z"/>
		</g>
	</g>
	<g>
		<g>
			<path class="st0" d="M61.1,137.4c1.7,0.1,3.3,0.2,5,0.1c0.6,0,1.6-0.2,1.9-0.8c0.3-0.6-0.3-0.8-0.8-0.8c-1.7,0-3.3,0-5-0.1
				c-0.6,0-1.6,0.2-1.9,0.8C59.9,137.2,60.6,137.4,61.1,137.4L61.1,137.4z"/>
		</g>
	</g>
	<g>
		<g>
			<path class="st0" d="M66.2,137.5c3.1,0,6.2,0.2,9.2-0.5c0.3-0.1,1.5-0.4,1.3-0.9c-0.2-0.5-1.3-0.2-1.6-0.1
				c-2.4,0.5-5.2,0.2-7.7,0.2C66.5,136.2,64.3,137.5,66.2,137.5L66.2,137.5z"/>
		</g>
	</g>
	<g>
		<g>
			<path class="st0" d="M74.7,137.8c1,0.1,2,0,3-0.2c1-0.2,1.9-0.3,2.9-0.6c0.5-0.2,1.4-0.6,1.2-1.3c-0.2-0.7-1.2-0.7-1.7-0.5
				c-1.3,0.4-3,0.8-4.3,0.7c-0.7-0.1-1.6,0.2-1.9,0.9C73.6,137.3,74.1,137.8,74.7,137.8L74.7,137.8z"/>
		</g>
	</g>
	<g>
		<g>
			<path class="st0" d="M80.1,136.6c-0.1,0-0.2,0-0.2,0c-0.1-0.1-0.2-0.1-0.3-0.2c0,0,0,0,0,0c-0.1,0.2,0.1,0.3,0.2,0.3
				c0.5,0.1,1,0,1.5-0.1c-0.4,0.1-0.7,0.1-1.1,0.2c0,0,0.1,0,0.1,0c-0.1,0-0.3-0.1-0.4-0.1C80,136.6,80,136.6,80.1,136.6
				c0.3,0.4,1.2,0.1,1.6-0.1c0.3-0.1,1.1-0.3,1.1-0.7c0-0.3,0.2-0.6,0.2-1c0-0.4-2.9,0-2.9,0.8c0,0.3-0.2,0.6-0.2,1
				c0.9-0.3,1.9-0.6,2.8-0.9c-0.4-0.3-1.3-0.1-1.7,0c0.4,0,0.9-0.1,1.3-0.1c0,0-0.1,0-0.1,0c0.1,0.1,0.2,0.2,0.2,0.3
				c0.2-0.5-0.9-0.4-1.1-0.4c-0.6,0.1-1.5,0.2-1.9,0.7C79,136.6,79.8,136.6,80.1,136.6L80.1,136.6z"/>
		</g>
	</g>
	<g>
		<g>
			<path class="st0" d="M67.4,146.1c0-0.8,0-1.4-0.6-2.1c-0.5-0.5-1.2-1-1.9-1.2c-1.4-0.3-3.2,0.7-3.1,2.3c0-0.1,0.1-0.3,0.1-0.4
				c0,0,0,0,0,0.1c0.7-0.2,1.5-0.5,2.2-0.7c-0.1,0-0.4-0.3-0.5-0.4c-0.6-0.4-2.7,0.1-2.6,1.1c0,0.2,0,0.9,0.2,0.7
				c0.6-0.2,1.2-0.4,1.7-0.6c0.3,0,0.3,0,0.1-0.1c-0.6-0.4-3.1-0.1-2.8,0.9c0.1,0.4,0.2,0.8,0.2,1.2c1-0.3,1.9-0.5,2.9-0.8
				c-0.2-0.4-0.3-0.8-0.6-1.1c-0.5-0.5-2.7-0.1-2.8,0.7c0,0.7-0.1,1.4-0.1,2.1c-0.1,1.1,2.8,0.5,2.9-0.4c0-0.7,0.1-1.4,0.1-2.1
				c-0.9,0.2-1.9,0.5-2.8,0.7c0.2,0.2,0.2,0.5,0.4,0.8c0.5,0.9,2.9,0.2,2.9-0.8c0-0.4,0-0.8-0.2-1.2c-0.9,0.3-1.9,0.6-2.8,0.9
				c0.9,0.6,1.8,0.7,2.8,0.2c1-0.5,0.9-1.2,0.8-2.2c-0.9,0.4-1.7,0.7-2.6,1.1c0.3,0.2,0.7,0.4,1.1,0.5c0.7,0.2,1.8-0.2,2.2-0.7
				c0.1-0.2,0.1-0.3,0.1-0.4c0.1-0.2,0.4-0.7,0-0.5c-0.6,0.1-1.2,0.2-1.8,0.4c0.4,0.1,1.1,0.6,1.3,1c0.3,0.5,0.2,1,0.2,1.6
				C64.5,147.7,67.4,147.2,67.4,146.1L67.4,146.1z"/>
		</g>
	</g>
	<g>
		<g>
			<path class="st0" d="M58.8,146.9c0,0.5,0.1,0.9,0.1,1.4c0,0.4-0.2,0.9-0.4,1.3c-0.2,0.6,0.9,0.6,1.2,0.5c0.5-0.1,1.5-0.3,1.7-0.9
				c0.1-0.4,0.3-0.9,0.4-1.3c0.1-0.5-0.1-0.9-0.1-1.4c0.1-0.6-0.8-0.6-1.2-0.5C60.1,146,58.9,146.3,58.8,146.9L58.8,146.9z"/>
		</g>
	</g>
	<g>
		<g>
			<path class="st0" d="M58.5,149.5c-0.1,0.8,0.1,1.5,0.2,2.3c0.1,0.9,0.1,1.8,0.2,2.6c0.1,1,3,0.4,2.9-0.8
				c-0.1-0.8-0.1-1.5-0.2-2.3c-0.1-0.7-0.3-1.5-0.2-2.2C61.5,148,58.6,148.5,58.5,149.5L58.5,149.5z"/>
		</g>
	</g>
	<g>
		<g>
			<path class="st0" d="M60,152c0,0.6,0,1.2,0,1.9c0,1.6,2.3,1,2.9,0.1c0.7-1.2,1.2-2.5,1.5-3.9c0.2-0.7,0.3-1.4,0.5-2.1
				c0.1-0.4,0.2-1.9,0.5-2.2c-0.8-0.1-1.6-0.2-2.4-0.3c0.8,2.8-0.6,5.9-1.4,8.6c-0.5,1.7,2.4,1.7,2.8,0.4c0.9-3.1,2.5-6.6,1.5-9.8
				c-0.3-1-1.8-0.9-2.4-0.3c-1.1,1-1.2,2.4-1.5,3.8c-0.4,1.9-0.9,3.7-1.8,5.4c1,0,1.9,0.1,2.9,0.1c0-0.6,0-1.2,0-1.9
				C63,150.3,60,150.6,60,152L60,152z"/>
		</g>
	</g>
	<g>
		<g>
			<path class="st0" d="M64,156.2c0-1.2,0-2.4,0.2-3.7c0.2-1.1-2.8-0.5-2.9,0.4c-0.2,1.3-0.3,2.7-0.2,4
				C61.1,157.8,64,157.3,64,156.2L64,156.2z"/>
		</g>
	</g>
	<g>
		<g>
			<path class="st0" d="M67.7,154.8c0-2.1-0.5-5.3,0.8-7.1c-1,0.2-1.9,0.4-2.9,0.6c0.1,1.7-0.5,3.5-0.3,5.1c0.1,1.2,1.6,1.3,2.6,1.1
				c3.3-0.6,3.3-3.8,3.6-6.5c0.1-0.6-2.7,0.1-2.9,0.6c-0.5,1.1-1.9,4.4-0.4,5.4c0.9,0.5,3.3,0,3.4-1.1c0-0.5-2.8-0.1-2.9,0.8
				c0,0,0,0,0-0.1c0.6-0.2,1.3-0.5,1.9-0.7c0,0,0-2.2,0-2.4c0.2-0.8,0.6-1.6,0.9-2.4c-1,0.2-1.9,0.4-2.9,0.6
				c-0.1,1.2,0.1,4.3-1.3,4.9c0.5-0.1,1-0.3,1.5-0.4c-1.1,0.1-0.4-2.5-0.4-2.9c0.1-1,0.1-1.9,0.1-2.8c-0.1-0.9-2.6,0.3-2.9,0.6
				c-1.3,2-0.8,5.2-0.8,7.4C64.8,156.1,67.7,155.7,67.7,154.8L67.7,154.8z"/>
		</g>
	</g>
	<g>
		<g>
			<path class="st0" d="M67.9,154.8c2.2-0.2,4.1,0.3,5.9-1.2c1.1-0.9,3.1-3.4,2.5-5c-0.8-1.8-3.2,0.3-3.8,1.1
				c-0.6,0.7-1.1,1.5-1.6,2.4c-0.3,0.5-0.5,1-0.8,1.5c-0.1,0.2-0.3,0.5-0.4,0.7c-0.3,0.3-0.3,0.4-0.1,0.3c0.7-0.1,1.4-0.2,2.1-0.2
				c0,0,0,0-0.1,0c-0.9-0.5-3.5,0.7-2.3,1.5c1.4,0.8,2.7-0.6,3.4-1.7c0.9-1.5,1.5-3.6,2.9-4.7c-0.4,0.1-0.7,0.3-1.1,0.4
				c0,0,0.1,0,0.1,0c-0.4-0.1-0.8-0.2-1.2-0.3c0.3,0.3-0.4,1.6-0.6,1.9c-0.3,0.5-0.6,1.1-1.1,1.4c-0.9,0.6-2.4,0.2-3.5,0.3
				C66.8,153.1,65.9,154.9,67.9,154.8L67.9,154.8z"/>
		</g>
	</g>
	<g>
		<g>
			<path class="st0" d="M73.8,150.3c0.2-1.1,0.5-2.3,0.9-3.4c0.1-0.4,0.3-0.8,0.5-1.2c0.1-0.3,0.2-0.5,0.4-0.8
				c0.3-0.5,0-0.5-0.9-0.1c-0.2-0.2-0.4-0.3-0.6-0.5c0.1,0.5-0.6,1.5-0.8,2c-0.3,0.7-0.7,1.4-1,2.1c-0.7,1.3-1.3,2.6-1.7,4
				c-0.4,1.2,2.6,0.9,2.9-0.3c0.6-1.8,1.5-3.4,2.3-5.1c0.5-1,1.3-2.4,1.2-3.5c0-0.3-0.4-0.4-0.6-0.5c-3.7-1.4-5,5.3-5.5,7.5
				C70.6,151.9,73.5,151.5,73.8,150.3L73.8,150.3z"/>
		</g>
	</g>
	<g>
		<g>
			<path class="st0" d="M74.5,157.6c0.8-1.4,1.5-2.8,2.1-4.3c0.3-0.8,0.5-1.7,0.8-2.5c0.2-0.8,0.3-2,0.7-2.7
				c-0.6,0.3-1.3,0.5-1.9,0.8c-0.5,0-0.1,1.4,0,1.7c0,1.1,2.5,0.2,2.8-0.3c0.5-0.5,0.2-0.7-0.7-0.4c-0.2-0.1-0.4-0.3-0.6-0.4
				c0.2,1.7-3.1,3-1.3,4.6c1.4,1.3,2.9,0.1,3.9-0.9c1.2-1.3-1.6-1.3-2.3-0.6c-0.2,0.3-1,0.8-0.3,0.5c0.5-0.1,1-0.1,1.5-0.2
				c-0.6-0.2,0.9-1.9,1-2.1c0.3-0.6,0.5-1.3,0.4-2c0-0.2-0.4-0.4-0.6-0.4c-1.6-0.4-3,0.6-3.8,1.9c0.9-0.1,1.9-0.2,2.8-0.3
				c0-1-0.2-2.3-1.4-2.6c-0.8-0.2-1.9,0.1-2.3,0.8c-0.8,1.1-0.9,3.1-1.3,4.4c-0.6,1.8-1.4,3.5-2.3,5.1
				C71.1,158.7,74,158.5,74.5,157.6L74.5,157.6z"/>
		</g>
	</g>
	<g>
		<g>
			<path class="st0" d="M78.2,151.2c0,0.5,0,0.9-0.1,1.4c-0.1,0.4-0.2,0.8-0.1,1.2c0.1,0.7,2.9,0.1,2.9-0.8c0,0,0.1-0.2,0.1-0.3
				c0-0.2-0.1-0.4-0.1-0.6c-0.1-0.7-3-0.1-2.9,0.8c0,0.2,0.1,0.4,0.1,0.6c0,0.1-0.1,0.2-0.1,0.3c1-0.3,1.9-0.5,2.9-0.8
				c-0.1-0.4,0.1-0.8,0.2-1.2c0.1-0.4,0.1-0.9,0.1-1.3C81.1,149.8,78.2,150.3,78.2,151.2L78.2,151.2z"/>
		</g>
	</g>
	<g>
		<g>
			<path class="st0" d="M78.1,153.5c0.1,0.1,0.2,0.1,0.2,0.2c0.4,0.4,1.3,0.3,1.8,0c0.5-0.3,0.8-0.7,0.8-1.3c0-0.1,0-0.3-0.1-0.4
				c-0.1-0.7-1.2-0.8-1.7-0.6c-0.6,0.2-1.3,0.7-1.2,1.4c0,0.1,0,0.3,0.1,0.4c0.9-0.4,1.7-0.8,2.6-1.2c-0.1-0.1-0.2-0.1-0.2-0.2
				C79.3,150.8,76.9,152.3,78.1,153.5L78.1,153.5z"/>
		</g>
	</g>
	<g>
		<g>
			<path class="st0" d="M79.7,153.3c0,0,0.1,0,0.1,0c-0.6,0.1-1.2,0.3-1.8,0.4c0.2,0,0.3,0,0.5,0c0.4-0.1,0.9-0.2,1.3-0.3
				c0.2-0.1,0.7-0.2,0.8-0.5c0-0.1,0.2-0.2,0.3-0.3c0.1-0.1,0-0.3,0.1-0.5c-1,0.3-1.9,0.5-2.9,0.8c0,0.2,0,0.5-0.1,0.7
				c0,0.3,2.8,0,2.9-0.8c0-0.2,0-0.5,0.1-0.7c0-0.3-2.8,0-2.9,0.8c0,0.2,0,0.1-0.1,0.3c-0.1,0.1-0.2,0.2-0.2,0.3
				c0.7-0.3,1.4-0.5,2.1-0.8c0.2,0,0.2,0-0.2,0c-0.2,0-0.4,0.1-0.6,0.1c-0.4,0.1-0.7,0.2-1,0.3c-0.2,0.1-1,0.5-0.4,0.7
				C78.3,153.8,79.2,153.5,79.7,153.3L79.7,153.3z"/>
		</g>
	</g>
	<g>
		<g>
			<path class="st0" d="M73.3,154.4c0.5-0.4,0,0.1-0.9,0.2c0.2,0,0.5-0.1,0.7-0.1c0.5-0.1,1-0.3,1.4-0.6c0.1-0.1,0.4-0.2,0.3-0.4
				c0-0.2-0.4-0.2-0.5-0.2c-0.6,0-1.5,0.2-2,0.5c1.3-0.3,1.6-0.5,0.9-0.3c-0.2,0-0.4,0.1-0.5,0.1c-0.3,0.1-0.6,0.2-0.9,0.3
				c-0.4,0.2-0.8,0.4-1.1,0.7c-0.5,0.4,0.5,0.5,0.7,0.4C72,155,72.8,154.8,73.3,154.4L73.3,154.4z"/>
		</g>
	</g>
	<g>
		<g>
			<path class="st0" d="M73.8,153.4c1,0,3.1-1.5,1.2-1.5C74,151.9,71.9,153.4,73.8,153.4L73.8,153.4z"/>
		</g>
	</g>
	<g>
		<g>
			<path class="st0" d="M73,152.5c-0.1,0.1-0.1,0.2-0.2,0.3c-0.4,0.6,0.3,1.1,0.9,1.2c0.7,0.1,1.5-0.2,1.9-0.9
				c0.1-0.1,0.1-0.2,0.2-0.3c0.4-0.6-0.3-1.1-0.9-1.2C74.2,151.6,73.4,151.9,73,152.5L73,152.5z"/>
		</g>
	</g>
	<g>
		<g>
			<path class="st0" d="M64.5,164.8c0-0.2,0-0.4,0-0.6c0.1-1-1.5-0.7-2-0.5c0.2,0,0.4-0.1,0.6-0.1c0.3,0.1,0.5,0.2,0.8,0.3
				c-0.5-0.4-0.8-1-1-1.6c-0.3-0.6-1.1-0.5-1.7-0.4c-0.4,0.1-1.5,0.6-1.2,1.2c0.3,0.6,0.6,1.3,1.1,1.8c0.7,0.8,1.8,0.4,2.7,0.1
				c-0.7-0.2-1.4-0.3-2-0.5c0,0.4,0,0.7,0,1.1c0.1,0.6,1.3,0.5,1.7,0.4C63.7,165.9,64.5,165.5,64.5,164.8L64.5,164.8z"/>
		</g>
	</g>
	<g>
		<g>
			<path class="st0" d="M65.9,165.3c0-0.2,0-0.4,0-0.6c-1,0.2-1.9,0.4-2.9,0.5c1.2,2.6,4.5,2.3,5.7-0.2
				C67.7,165.1,66.8,165.2,65.9,165.3c0,1,0.7,1.3,1.6,1.2c0.5,0,0.9-0.3,1.3-0.4c0.6-0.1,1.2-0.2,1.8-0.3c0.5-0.1,1.4-0.6,1.2-1.2
				c-0.2-0.7-1.2-0.6-1.7-0.4c-0.5,0.1-1,0.1-1.4,0.2c-0.3,0-0.5,0.1-0.7,0.2c-0.5,0.1-0.5,0.2,0,0.1c0.3,0.1,0.5,0.2,0.8,0.3
				c-0.1-0.1-0.1-0.3-0.1-0.4c-0.1-1.1-2.5-0.4-2.8,0.3C65.8,165,65.3,165.8,65.9,165.3c0.4-0.4,0.2-0.3,0-0.8
				c-0.4-0.9-2.9-0.5-2.9,0.5c0,0.2,0,0.4,0,0.6C63,166.9,65.9,166.4,65.9,165.3L65.9,165.3z"/>
		</g>
	</g>
	<g>
		<g>
			<path class="st0" d="M77,162.2c-0.1,0.9-0.1,1.7-0.6,2.5c-0.3,0.4,1.1,0.3,1.1,0.2c0.5-0.1,1.4-0.3,1.7-0.8
				c0.5-0.8,0.6-1.8,0.7-2.7c0-0.4-1.4-0.1-1.6,0C78,161.5,77.1,161.7,77,162.2L77,162.2z"/>
		</g>
	</g>
	<g>
		<g>
			<path class="st0" d="M78.4,165c0-0.3,0-0.5,0-0.8c0-1.3-2.1-0.6-2.6-0.1c-0.4,0.4-0.7,0.8-1,1.2c-0.3,0.4-0.5,1-0.9,1.2
				c0.5-0.1,1-0.3,1.5-0.4c0,0-0.1,0-0.1,0c0.3,0.2,0.6,0.3,0.9,0.5c-0.2-0.6,0-1.5,0.1-2.1c0.2-1.2-2.2-0.6-2.6-0.1
				c-0.2,0.3-0.5,0.6-0.7,0.9c0.9,0,1.7-0.1,2.6-0.1c-0.2-1.4-1.7-1.2-2.8-1c-0.9,0.1-2.9,0.4-2.9,1.7c0.1,1,3,0.4,2.9-0.8
				c0,0,0,0,0-0.1c-0.2,0.3-0.4,0.6-0.5,0.9c-0.4,0.3,0,0,0.3,0c0.3,0,0-0.3,0.1,0.1c0.1,1,2.2,0.4,2.6-0.1c0.2-0.3,0.5-0.6,0.7-0.9
				c-0.9,0-1.8-0.1-2.6-0.1c-0.1,0.7-0.4,1.9-0.1,2.6c0.1,0.4,0.5,0.5,0.9,0.5c2.1,0.2,2.7-2,4-3.2c-0.9,0-1.8-0.1-2.6-0.1
				c0,0.3,0,0.5,0,0.8C75.5,166.6,78.4,166.1,78.4,165L78.4,165z"/>
		</g>
	</g>
	<g>
		<g>
			<path class="st0" d="M60.4,148.7c-0.6,0.1-1.2,0.4-1.6,0.8c-0.1,0.1-0.3,0.2-0.3,0.4c0,0.1,0,0.2,0,0.4c0,0.4,2.9,0,2.9-0.8
				c0-0.2-0.1-0.2,0.1-0.3c-0.3,0.1-0.7,0.3-1,0.4c0,0,0.1,0,0.1,0c0.3-0.1,1.4-0.4,1.3-0.8C61.9,148.3,60.5,148.7,60.4,148.7
				L60.4,148.7z"/>
		</g>
	</g>
	<g>
		<g>
			<path class="st0" d="M58.5,150.2c0.2,0.7,0.2,1.4,0.3,2.1c0.1,0.7,3.1,0,2.9-0.8c-0.1-0.7-0.1-1.4-0.3-2.1
				C61.2,148.8,58.3,149.5,58.5,150.2L58.5,150.2z"/>
		</g>
	</g>
	
		<rect x="58.8" y="149.2" transform="matrix(0.995 -9.965742e-02 9.965742e-02 0.995 -14.8449 6.6554)" class="st0" width="0.8" height="5.4"/>
	<path class="st0" d="M79.3,93.3c0,5.5,2,10.3,5.9,14.2c4,4,8.7,5.9,14.2,5.9c5.5,0,10.3-2,14.2-5.9c4-4,5.9-8.7,5.9-14.2
		c0-5.5-2-10.3-5.9-14.2c-4-4-8.7-5.9-14.2-5.9c-5.5,0-10.3,2-14.2,5.9C81.2,83,79.3,87.7,79.3,93.3z"/>
</g>
<g id="Layer_1">
	<path class="st0" d="M173.7,111.7h-22.1c-4.5,0-8.1-3.6-8.1-8.1V81.4c0-4.5,3.6-8.1,8.1-8.1h22.1c4.5,0,8.1,3.6,8.1,8.1v22.1
		C181.9,108,178.2,111.7,173.7,111.7z"/>
	<path class="st1" d="M87.6,19l-3.2,36L70,59l-14.4-4l-3.2-36H87.6L87.6,19z"/>
	<path class="st2" d="M70,55.9l11.7-3.2l2.7-30.8H70V55.9L70,55.9z"/>
	<path class="st3" d="M63.7,30.8H70v-4.4H58.9l0.1,1.2l1.1,12.2H70v-4.4h-5.8L63.7,30.8L63.7,30.8z"/>
	<path class="st3" d="M64.7,41.9h-4.4l0.6,6.9l9,2.5l0,0v-4.6l0,0l-4.9-1.3L64.7,41.9L64.7,41.9z"/>
	<path class="st4" d="M70,39.7h5.4l-0.5,5.7L70,46.7v4.6l9-2.5l0.1-0.7l1-11.6l0.1-1.2H70V39.7L70,39.7z"/>
	<path class="st4" d="M70,30.7L70,30.7l10.7,0l0.1-1l0.2-2.2l0.1-1.2H70V30.7L70,30.7z"/>
	<path class="st5" d="M145.8,55.5l-14.2,3.8l-14.2-3.8L114.1,20h35L145.8,55.5z"/>
	<path class="st6" d="M131.6,22.9v33.4l0,0l11.5-3.1l2.7-30.3H131.6L131.6,22.9z"/>
	<path class="st4" d="M131.6,31.8L121.4,36l0.3,4.2l9.8-4.2l10.5-4.5l0.4-4.3L131.6,31.8z"/>
	
		<linearGradient id="SVGID_1_" gradientUnits="userSpaceOnUse" x1="-919.4353" y1="-82.5507" x2="-919.4353" y2="-90.9784" gradientTransform="matrix(1 0 0 1 1045.9302 122.7588)">
		<stop  offset="0.387" style="stop-color:#D2D3D4;stop-opacity:0"/>
		<stop  offset="1" style="stop-color:#D2D3D4"/>
	</linearGradient>
	<path class="st7" d="M121.4,36l0.3,4.2l9.8-4.2v-4.2L121.4,36z"/>
	
		<linearGradient id="SVGID_2_" gradientUnits="userSpaceOnUse" x1="-908.9052" y1="-86.7542" x2="-908.9052" y2="-95.5144" gradientTransform="matrix(1 0 0 1 1045.9302 122.7588)">
		<stop  offset="0.387" style="stop-color:#D2D3D4;stop-opacity:0"/>
		<stop  offset="1" style="stop-color:#D2D3D4"/>
	</linearGradient>
	<path class="st8" d="M142.5,27.2l-10.9,4.5V36l10.5-4.5L142.5,27.2z"/>
	
		<linearGradient id="SVGID_3_" gradientUnits="userSpaceOnUse" x1="-924.5038" y1="-78.7919" x2="-904.2625" y2="-78.7919" gradientTransform="matrix(1 0 0 1 1045.9302 122.7588)">
		<stop  offset="0" style="stop-color:#E8E7E5"/>
		<stop  offset="1" style="stop-color:#FFFFFF"/>
	</linearGradient>
	<path class="st9" d="M121.4,36l0.3,4.2l15.1,0l-0.3,5.6l-5,1.4l-4.8-1.2l-0.3-3.5h-4.4l0.6,6.7l9,2.7l8.9-2.6l1.2-13.3H121.4z"/>
	<g class="st10">
		<path class="st11" d="M131.6,36h-10.2l0.3,4.2l9.8,0V36L131.6,36z M131.6,47.2L131.6,47.2l-4.8-1.2l-0.3-3.5H122l0.6,6.7l9,2.7
			V47.2z"/>
	</g>
	
		<linearGradient id="SVGID_4_" gradientUnits="userSpaceOnUse" x1="-925.4352" y1="-93.3699" x2="-903.4595" y2="-93.3699" gradientTransform="matrix(1 0 0 1 1045.9302 122.7588)">
		<stop  offset="0" style="stop-color:#E8E7E5"/>
		<stop  offset="1" style="stop-color:#FFFFFF"/>
	</linearGradient>
	<path class="st12" d="M120.5,27.2h22l-0.4,4.3h-21L120.5,27.2z"/>
	<path class="st13" d="M131.6,27.2h-11.1l0.5,4.3h10.6V27.2L131.6,27.2z"/>
	<path class="st11" d="M76.8,93.3c0-6.3,2.2-11.6,6.6-16c4.4-4.4,9.8-6.6,16-6.6c6.3,0,11.6,2.2,16,6.6c4.4,4.4,6.6,9.8,6.6,16
		s-2.2,11.6-6.6,16c-4.4,4.4-9.8,6.6-16,6.6c-6.3,0-11.6-2.2-16-6.6C79,104.9,76.8,99.5,76.8,93.3z M79.3,93.3
		c0,5.5,2,10.3,5.9,14.2c4,4,8.7,5.9,14.2,5.9c5.5,0,10.3-2,14.2-5.9c4-4,5.9-8.7,5.9-14.2c0-5.5-2-10.3-5.9-14.2
		c-4-4-8.7-5.9-14.2-5.9c-5.5,0-10.3,2-14.2,5.9C81.2,83,79.3,87.7,79.3,93.3z M85.6,98.1c-0.1-0.1-0.1-0.2,0-0.4
		c0.2-0.2,0.5-0.3,0.9-0.3c0.4,0.1,0.6,0.1,0.6,0.2c0.4,0.2,0.9,0.6,1.4,1.2c0.5,0.6,0.9,1,1.2,1.3c1.4,1.2,2.9,1.3,4.3,0.3
		c0.1-0.4,0.3-0.8,0.6-1.1c0.3-0.3,0.5-0.5,0.8-0.6c0.2-0.1,0.6-0.3,1.2-0.5c-1.9-0.2-3.5-0.5-4.7-1c-1.2-0.5-2.2-1.1-2.9-1.9
		c-0.9-1.1-1.5-2.4-1.7-4.2c-0.2-1.7-0.1-3.3,0.4-4.7c0.4-0.9,0.9-1.7,1.5-2.4c-0.5-1.5-0.4-3.2,0.3-5c1.9,0.1,3.6,0.8,5.1,1.9
		c2.9-0.8,6-0.8,9.2-0.1c0.4-0.3,1-0.7,1.9-1.1c0.9-0.4,1.9-0.7,3.2-0.8c0.2,0.6,0.4,1.4,0.5,2.3s0,1.7-0.1,2.5
		c1.4,1.4,2.1,3.3,2.1,5.7c0,1.9-0.3,3.5-1,4.7s-1.8,2.3-3.5,3.1c-1.1,0.5-2.6,0.9-4.4,1c0.8,0.4,1.4,0.8,1.8,1.3
		c0.4,0.4,0.6,1.1,0.8,2.1v2.8c0,0,0,0.9,0.1,2.7c0.2,0.3,0.4,0.5,0.6,0.8c0.2,0.2,0.4,0.4,0.6,0.4c0.2,0.1,0.2,0.2,0.2,0.4
		c-0.1,0.2-0.3,0.3-0.7,0.3c-1,0-1.8-0.4-2.4-1.1c-0.2-0.3-0.3-0.6-0.3-1.1v-4.2c0-0.5-0.1-0.8-0.4-1c-0.2-0.2-0.5-0.3-0.7-0.4v5.6
		c0,1,0.1,1.7,0.4,1.9s0.4,0.6,0.4,0.9c0.1,0.1,0,0.1-0.1,0.1c-0.1,0-0.4,0-0.8-0.1c-0.8-0.2-1.3-0.6-1.6-1.2
		c-0.3-0.6-0.4-1.3-0.4-2v-5.5h-1.2v5.5c0,0.7-0.1,1.4-0.4,2c-0.4,0.8-1.2,1.3-2.3,1.3c-0.2-0.1-0.3-0.1-0.3-0.2
		c0.1-0.1,0.2-0.4,0.5-0.9c0.1-0.1,0.1-0.4,0.2-0.7c0.1-0.4,0.1-0.8,0.1-1.2v-5.6c-0.2,0.1-0.5,0.2-0.7,0.4s-0.3,0.5-0.3,1v4.2
		c0,0.4-0.1,0.8-0.3,1.1c-0.5,0.7-1.3,1.1-2.4,1.1c-0.4,0-0.6-0.1-0.7-0.3c-0.1-0.1,0-0.2,0-0.3c0.1-0.1,0.2-0.2,0.4-0.3
		s0.3-0.2,0.4-0.3c0.2-0.2,0.4-0.4,0.5-0.7c0.2-0.2,0.2-0.9,0.1-1.9s-0.1-1.7,0-1.9c-1.5,0.5-3.1,0.3-4.7-0.8
		c-0.5-0.5-0.9-1.2-1.4-2C87.4,99.8,86.7,99,85.6,98.1L85.6,98.1z"/>
	<path class="st14" d="M150.1,158.1c-1.8,0-3.4,0.4-4.7,1.1c-0.5-1-1-1.8-1.1-2.4c-0.1-0.7-0.2-1.2-0.1-2c0.1-0.9,0.6-2.1,0.6-2.2
		c0-0.1-0.1-0.5-1.2-0.5c-1,0-1.9,0.2-2,0.5s-0.3,0.9-0.4,1.5c-0.2,1-2.1,4.3-3.2,6.1c-0.4-0.7-0.7-1.3-0.7-1.8
		c-0.1-0.7-0.2-1.2-0.1-2c0.1-0.9,0.6-2.1,0.6-2.2c0-0.1-0.1-0.5-1.2-0.5c-1,0-1.9,0.2-2,0.5s-0.2,0.9-0.4,1.5
		c-0.2,0.6-2.7,6.3-3.4,7.7c-0.3,0.7-0.6,1.3-0.8,1.8c-0.2,0.4,0,0,0,0.1c-0.2,0.3-0.3,0.5-0.3,0.5v0c-0.1,0.3-0.3,0.5-0.4,0.5
		c-0.1,0-0.2-0.7,0-1.6c0.4-2,1.3-5,1.3-5.1c0-0.1,0.2-0.6-0.6-0.9c-0.7-0.3-1,0.2-1.1,0.2c-0.1,0-0.1,0.2-0.1,0.2s0.8-3.4-1.6-3.4
		c-1.5,0-3.6,1.6-4.6,3.1c-0.6,0.4-2,1.1-3.5,1.9c-0.6,0.3-1.1,0.6-1.7,0.9l-0.1-0.1c-2.9-3.1-8.2-5.3-8-9.4
		c0.1-1.5,0.6-5.5,10.3-10.3c7.9-3.9,14.3-2.9,15.4-0.5c1.6,3.4-3.4,9.8-11.6,10.8c-3.1,0.4-4.8-0.9-5.2-1.3
		c-0.4-0.5-0.5-0.5-0.7-0.4c-0.3,0.1-0.1,0.6,0,0.8c0.2,0.6,1.3,1.8,3,2.3c1.5,0.5,5.2,0.8,9.6-1c5-1.9,8.9-7.3,7.7-11.8
		c-1.2-4.6-8.7-6.1-15.9-3.5c-4.3,1.5-8.9,3.9-12.2,7c-3.9,3.7-4.6,6.9-4.3,8.2c0.9,4.8,7.5,7.9,10.1,10.2c-0.1,0.1-0.3,0.1-0.4,0.2
		c-1.3,0.6-6.3,3.3-7.6,6c-1.4,3.1,0.2,5.4,1.3,5.7c3.4,0.9,6.8-0.7,8.7-3.5c1.9-2.8,1.6-6.4,0.8-8l0-0.1l1-0.6
		c0.7-0.4,1.3-0.8,1.9-1.1c-0.3,0.9-0.6,1.9-0.7,3.4c-0.1,1.8,0.6,4.1,1.5,5c0.4,0.4,0.9,0.4,1.2,0.4c1.1,0,1.6-0.9,2.2-2
		c0.7-1.3,1.3-2.9,1.3-2.9s-0.8,4.2,1.3,4.2c0.8,0,1.5-1,1.9-1.5v0c0,0,0,0,0.1-0.1c0.1-0.1,0.1-0.2,0.1-0.2v0c0.3-0.5,1-1.7,2-3.7
		c1.3-2.6,2.6-5.8,2.6-5.8s0.1,0.8,0.5,2.1c0.2,0.8,0.7,1.6,1.1,2.4c-0.3,0.4-0.5,0.7-0.5,0.7l0,0c-0.2,0.3-0.5,0.7-0.8,1
		c-1,1.2-2.3,2.6-2.4,3c-0.2,0.5-0.2,0.8,0.2,1.1c0.3,0.2,0.8,0.2,1.3,0.2c0.9-0.1,1.6-0.3,1.9-0.4c0.5-0.2,1.1-0.5,1.6-0.9
		c1-0.7,1.6-1.8,1.6-3.2c0-0.8-0.3-1.5-0.6-2.3c0.1-0.1,0.2-0.3,0.3-0.4c1.6-2.3,2.8-4.9,2.8-4.9s0.1,0.8,0.5,2.1
		c0.2,0.7,0.6,1.4,0.9,2.1c-1.5,1.2-2.4,2.6-2.8,3.6c-0.6,1.7-0.1,2.5,0.7,2.7c0.4,0.1,1-0.1,1.4-0.3c0.5-0.2,1.2-0.5,1.8-0.9
		c1-0.7,2-1.8,1.9-3.2c0-0.6-0.2-1.3-0.4-1.9c1.3-0.5,2.9-0.8,5-0.6c4.5,0.5,5.4,3.3,5.2,4.5c-0.2,1.2-1.1,1.8-1.4,2
		c-0.3,0.2-0.4,0.3-0.4,0.4c0,0.2,0.2,0.2,0.5,0.2c0.4-0.1,2.4-1,2.4-3.1C157.5,161.1,154.8,158.1,150.1,158.1L150.1,158.1z
		 M115.4,169.9c-1.5,1.6-3.6,2.2-4.5,1.7c-1-0.6-0.6-3,1.2-4.7c1.1-1.1,2.6-2,3.5-2.6c0.2-0.1,0.5-0.3,0.9-0.6
		c0.1,0,0.1-0.1,0.1-0.1c0.1,0,0.2-0.1,0.2-0.1C117.6,166,117,168.1,115.4,169.9L115.4,169.9z M126.3,162.5
		c-0.5,1.3-1.6,4.5-2.3,4.3c-0.6-0.2-0.9-2.6-0.1-5c0.4-1.2,1.3-2.7,1.8-3.2c0.8-0.9,1.7-1.2,1.9-0.8
		C127.9,158.1,126.6,161.7,126.3,162.5z M135.2,166.7c-0.2,0.1-0.4,0.2-0.5,0.1c-0.1,0,0.1-0.2,0.1-0.2s1.1-1.2,1.6-1.8
		c0.3-0.3,0.6-0.7,0.9-1.1v0.1C137.3,165.4,135.9,166.4,135.2,166.7z M142.2,165.2c-0.2-0.1-0.1-0.5,0.4-1.7c0.2-0.5,0.7-1.2,1.5-2
		c0.1,0.3,0.2,0.6,0.2,0.9C144.3,164.2,143,164.9,142.2,165.2z"/>
	<g>
		<path class="st15" d="M77,176l0.6-9.2l1.5-2.6c0,0-3.5,1.4-9.3,1.4c-5.8,0-9.2-1.4-9.2-1.4l1.7,2.8l0.6,8.9c0,1,3.2,1.7,7,1.7
			C73.8,177.7,77,176.9,77,176"/>
		<path class="st15" d="M75.3,133.1l1.2-4.6l6.4-6.7l-1.7-1.4l-6.8,7.2L73,133c-1,0-2-0.1-3-0.1c-7.1,0-12.9,0.8-12.9,1.8
			c0,1,5.8,1.8,12.9,1.8c7.1,0,12.9-0.8,12.9-1.8C82.9,134,79.8,133.4,75.3,133.1"/>
		<path class="st4" d="M74.6,135.7c0,0-0.3,0.1-1,0.1c-0.7,0-1.3,0-1.5-0.2c-0.1-0.1-0.1-0.2-0.1-0.2c0-0.1,0.1-0.2,0.2-0.3l0.1,0.2
			c0,0-0.1,0-0.1,0.1c0,0.1,0.8,0.2,1.3,0.2c0.6,0,1.3-0.1,1.3-0.2c0,0-0.1-0.1-0.1-0.1l0.1-0.2c0.1,0,0.3,0.1,0.3,0.3
			C75.1,135.6,74.8,135.6,74.6,135.7"/>
		<path class="st15" d="M82.8,121.8c0.2-0.2-0.1-0.7-0.5-1.1c-0.5-0.4-1-0.6-1.1-0.4c-0.2,0.2,0.1,0.7,0.5,1.1
			C82.1,121.8,82.6,122,82.8,121.8"/>
		<path class="st15" d="M76.7,153.6c-0.2-1.5,3.2-3.6,2.3-3.6c-1.8,0.1-2.8,2.2-3.7,4.3c-0.3,0.8-1.5,4.2-2.3,3.7
			c-0.8-0.4,1-3.2,1.5-4.8c-0.6,0.4-2.6,2-3.2,0.5c-0.9,0.7-2.7,1.1-2.5-0.8c-0.5,0.8-1.5,1.9-2.7,1.5c-1.6-0.6,0.9-5.8,1.6-5.5
			c0.6,0.3-0.1,1.4-0.3,1.9c-0.4,1-1,2.3-0.6,2.5c0.6,0.4,2.2-1.7,2.2-1.7c0.3-0.4,1.1-3,1.8-2.7c0.7,0.3-1.7,3.7-0.8,4.4
			c0.2,0.1,0.9-0.1,1.4-0.6c0.3-0.3,0.2-1,1.2-3.3c1-2.3,1.8-5.2,2.5-4.9c0.7,0.2,0.1,1.7-0.1,2.2c-1.1,2.6-3,6.8-2.1,6.5
			c0.9-0.3,1.4-0.3,2.3-1.4c0.9-1,0.8-2.8,1.4-2.7c0.6,0,0.5,0.6,0.3,1c0.6-0.7,2.8-2.1,3.3-0.7c0.6,1.6-3.1,4-2.2,3.9
			c0.9-0.1,2.4-1.1,3-1.9l1.7-15.6c0,0-1.7,1.4-12.8,1.4c-11.1,0-12.7-1.4-12.7-1.4l1.5,14.2c0.8-2.2,2.6-6.7,5.6-6.6
			c1.3,0.1,3.1,2.6,1.6,2.7c-0.6,0-0.7-1.3-1.5-1.5c-0.6-0.1-1.3,0.3-1.8,0.8c-1,1-3.1,4.8-2.8,6.7c0.4,2.4,3.4-0.8,3.9-1.8
			c0.4-0.7,0.6-2.7,1.4-2.5c0.8,0.2-0.1,2.3-0.6,4.2c-0.6,2.1-1,4.3-1.8,4c-0.8-0.3,0.5-2.9,0.5-3.4c-0.7,0.7-2.1,2.4-3.9,1.6
			l0.9,8.8c0,0,2.4,1.9,9.8,1.9s9.9-1.9,9.9-1.9l1.1-10.2C79.8,153.8,76.9,155.4,76.7,153.6"/>
	</g>
	<g>
		<path class="st16" d="M167.5,104.5c0.3,0.4,0.5,0.4,0.7,0.3c0.2-0.1,12.2-4.1,12.6-4.3c0.4-0.1,0.2-0.2,0.1-0.4
			c-0.1-0.2-4.1-5.6-4.3-5.9c-0.2-0.3-0.3-0.2-0.6-0.1l-12.7,3.3C163.3,97.3,167.2,104,167.5,104.5L167.5,104.5z"/>
		<path class="st16" d="M181.9,98.9v-6.4c-1.4,0.4-3.2,0.9-4,1.1C179,95.1,180.7,97.3,181.9,98.9L181.9,98.9z"/>
		<path class="st16" d="M177.9,85.8c-0.2,0-4.5,0.8-4.8,0.9c-0.3,0-0.2,0.2-0.1,0.3l3.8,5.2c0,0,4.7-1.2,4.9-1.2c0,0,0,0,0.1,0v-0.7
			c-0.8-1.1-3.2-4-3.4-4.3C178.3,85.7,178.1,85.8,177.9,85.8L177.9,85.8z"/>
		<path class="st16" d="M150.6,77.6c0.9,0,1,0.2,1.4,0.8l10.4,17.3l13-3.1c-0.7-1-4-5.7-4.3-6.1c-0.4-0.5,0-0.7,0.6-0.8
			c0.6-0.1,5.6-0.9,6-1c0.4-0.1,0.8-0.2,1.5,0.6c0.4,0.4,1.6,1.9,2.7,3.3v-8.1c0-2-0.7-3.7-2.1-5.1s-3.1-2.1-5.1-2.1h-24
			c-2,0-3.7,0.7-5.1,2.1c-0.8,0.8-1.4,1.7-1.7,2.7C146.2,77.9,150,77.6,150.6,77.6L150.6,77.6z"/>
		<path class="st16" d="M168.7,106.8c-1.1,0.3-1.6,0.5-2.3-0.5c-0.5-0.7-3.4-6-4.9-8.5c-2.7,0.7-7.6,2-9,2.3c-1.4,0.3-2-0.5-2.2-1
			c-0.2-0.4-4.2-9.1-6.8-14.7v20.1c0,2,0.7,3.7,2.1,5.1c1.4,1.4,3.1,2.1,5.1,2.1h24c2,0,3.7-0.7,5.1-2.1c1.4-1.4,2.1-3.1,2.1-5.1
			v-2.4C178.9,103.2,169.5,106.6,168.7,106.8L168.7,106.8z"/>
		<path class="st16" d="M152.6,98.1c0.4-0.1,7.7-1.8,7.8-1.9c0.2,0,0.3-0.1,0.1-0.4S150.8,79,150.8,79c-0.1-0.2-0.1-0.2-0.3-0.2
			c-0.2,0-5.6,0.5-6.9,0.6c0,0.3-0.1,0.5-0.1,0.8c1.3,2.6,8.6,17.7,8.6,17.8C152.2,98.1,152.2,98.2,152.6,98.1L152.6,98.1z"/>
	</g>
	<g>
		<polygon class="st17" points="37.9,71.3 37.9,71.3 37.9,71.3 18.1,78.4 21.2,104.6 37.9,113.8 37.9,113.8 37.9,113.8 54.7,104.6 
			57.7,78.4 		"/>
		<polygon class="st18" points="37.9,71.3 37.9,76.1 37.9,76 37.9,97.6 37.9,97.6 37.9,113.8 37.9,113.8 54.7,104.6 57.7,78.4 		"/>
		<path class="st4" d="M37.9,76l-12.4,27.7l0,0h4.6l0,0l2.5-6.2h10.5l2.5,6.2l0,0h4.6l0,0L37.9,76L37.9,76L37.9,76L37.9,76L37.9,76z
			 M41.5,93.7h-7.2l3.6-8.7L41.5,93.7z"/>
	</g>
</g>
</svg>
